<?xml version="1.0" standalone="no"?>
<!DOCTYPE svg PUBLIC "-//W3C//DTD SVG 20010904//EN"
 "http://www.w3.org/TR/2001/REC-SVG-20010904/DTD/svg10.dtd">
<svg version="1.0" xmlns="http://www.w3.org/2000/svg"
 width="1000.000000pt" height="1000.000000pt" viewBox="0 0 1000.000000 1000.000000"
 preserveAspectRatio="xMidYMid meet">
<metadata>
Created by potrace 1.14, written by Peter Selinger 2001-2017
</metadata>
<g transform="translate(0.000000,1000.000000) scale(0.100000,-0.100000)"
fill="#000000" stroke="none">
<path d="M4514 9985 c-1508 -137 -2865 -955 -3698 -2228 -382 -584 -634 -1227
-750 -1912 -53 -319 -61 -421 -61 -845 0 -424 8 -526 61 -845 200 -1186 812
-2248 1739 -3020 702 -584 1536 -955 2447 -1090 415 -60 1001 -60 1416 0 1613
238 2992 1237 3725 2700 279 557 437 1106 509 1760 21 189 17 850 -5 1040 -76
635 -233 1168 -504 1710 -314 627 -737 1160 -1278 1610 -776 646 -1712 1031
-2722 1120 -205 18 -679 18 -879 0z"/>
</g>
</svg>
