<?xml version="1.0" standalone="no"?>
<!DOCTYPE svg PUBLIC "-//W3C//DTD SVG 20010904//EN"
 "http://www.w3.org/TR/2001/REC-SVG-20010904/DTD/svg10.dtd">
<svg version="1.0" xmlns="http://www.w3.org/2000/svg"
 width="512.000000pt" height="512.000000pt" viewBox="0 0 512.000000 512.000000"
 preserveAspectRatio="xMidYMid meet">
<metadata>
Created by potrace 1.14, written by Peter Selinger 2001-2017
</metadata>
<g transform="translate(0.000000,512.000000) scale(0.100000,-0.100000)"
fill="#000000" stroke="none">
<path d="M2211 5104 c-560 -79 -1058 -323 -1446 -709 -132 -130 -150 -151
-241 -270 -280 -366 -463 -820 -514 -1280 -13 -116 -13 -454 0 -570 57 -507
266 -991 604 -1395 75 -89 282 -283 386 -362 378 -284 766 -443 1230 -504 186
-24 564 -15 750 19 164 30 190 37 356 92 645 215 1177 678 1479 1290 95 193
138 310 191 521 55 223 74 380 74 624 0 244 -19 401 -74 624 -53 211 -96 327
-191 521 -300 609 -834 1076 -1479 1290 -166 55 -192 62 -356 92 -116 21 -173
25 -400 28 -197 3 -292 0 -369 -11z m521 -211 c109 -40 212 -129 267 -232 178
-335 -61 -734 -439 -734 -323 0 -559 297 -485 611 42 179 173 315 355 368 67
20 231 12 302 -13z m-1390 -544 c167 -35 310 -160 369 -325 32 -87 32 -246 -1
-329 -76 -195 -232 -314 -435 -332 -231 -19 -453 138 -516 365 -34 120 -20
251 37 365 34 67 144 177 212 211 100 51 225 68 334 45z m2703 -4 c129 -34
261 -138 319 -253 102 -202 62 -440 -100 -592 -175 -163 -422 -184 -622 -53
-154 102 -241 300 -213 483 45 295 333 488 616 415z m-1255 -904 c314 -91 562
-340 652 -656 20 -69 23 -103 23 -245 0 -184 -14 -254 -79 -395 -270 -585
-1050 -723 -1507 -266 -364 365 -364 957 1 1321 131 131 279 212 471 255 97
22 341 14 439 -14z m-2021 -416 c126 -30 242 -113 311 -221 100 -158 96 -383
-11 -543 -188 -281 -603 -294 -810 -24 -69 90 -91 156 -97 283 -4 116 13 188
66 279 105 179 334 274 541 226z m3770 0 c179 -43 332 -197 371 -376 17 -75 8
-209 -18 -281 -69 -192 -263 -328 -467 -328 -276 0 -498 223 -498 500 0 323
298 559 612 485z m-3236 -1320 c261 -55 437 -319 384 -576 -22 -110 -61 -183
-137 -259 -102 -103 -213 -150 -350 -150 -276 0 -500 224 -500 500 0 270 220
493 490 499 25 0 75 -6 113 -14z m2781 -15 c244 -84 385 -346 321 -595 -82
-312 -436 -468 -719 -317 -72 38 -175 145 -210 216 -70 146 -70 303 1 446 109
222 373 331 607 250z m-1444 -480 c93 -15 203 -71 271 -140 195 -194 196 -508
3 -703 -95 -96 -217 -147 -354 -147 -137 0 -259 51 -354 147 -239 241 -171
647 134 796 104 51 188 64 300 47z"/>
<path d="M2220 2605 l0 -325 80 0 80 0 0 325 0 325 -80 0 -80 0 0 -325z"/>
<path d="M2942 2693 c3 -214 6 -243 24 -283 81 -176 304 -187 398 -20 27 48
31 64 31 130 -1 89 -22 139 -86 193 -43 38 -123 64 -158 52 -19 -6 -21 -14
-21 -100 l0 -94 34 6 c27 4 36 1 50 -18 22 -31 20 -65 -4 -89 -27 -27 -65 -26
-84 2 -13 19 -16 59 -16 240 l0 218 -86 0 -86 0 4 -237z"/>
<path d="M1868 2759 c-48 -14 -113 -71 -141 -123 -16 -31 -22 -58 -22 -116 0
-66 4 -82 31 -130 56 -100 169 -144 269 -106 76 29 145 127 145 206 0 22 -2
22 -77 15 -66 -5 -81 -10 -96 -31 -12 -15 -29 -24 -47 -24 -54 0 -81 79 -40
120 24 24 49 25 76 5 13 -10 45 -14 103 -15 l83 0 -6 28 c-29 120 -163 203
-278 171z"/>
<path d="M2480 2583 c0 -188 10 -226 69 -276 94 -79 229 -48 286 66 24 48 25
60 25 214 l0 163 -80 0 -80 0 0 -144 c0 -115 -3 -146 -15 -156 -12 -10 -18
-10 -30 0 -12 10 -15 41 -15 156 l0 144 -80 0 -80 0 0 -167z"/>
</g>
</svg>
